<svg version="1.2" baseProfile="tiny-ps" xmlns="http://www.w3.org/2000/svg" viewBox="0 0 2000 2000" width="2000" height="2000">
	<title>1007-03-ai</title>
	<style>
		tspan { white-space:pre }
		.s0 { fill: #ffffff } 
		.s1 { fill: #c3c3dd } 
		.s2 { fill: #eaeaf9 } 
		.s3 { fill: #34344c } 
		.s4 { fill: #0d0d2b } 
		.s5 { fill: #48c23c } 
		.s6 { fill: #298c29 } 
		.s7 { fill: #42ba42 } 
		.s8 { fill: #64dd64 } 
	</style>
	<g id="Layer 1">
	</g>
	<g id="Layer 2">
		<path id="&lt;Path&gt;" class="s0" d="m2000 2000h-2000v-2000h2000v2000z" />
		<g id="&lt;Group&gt;">
			<path id="&lt;Path&gt;" class="s1" d="m1737.67 1841.38c0 22.78-245.66 41.25-548.7 41.25c-303.04 0-548.7-18.47-548.7-41.25c0-22.78 245.66-41.25 548.7-41.25c303.04 0 548.7 18.47 548.7 41.25z" />
			<g id="&lt;Group&gt;">
				<path id="&lt;Path&gt;" class="s2" d="m573.18 835.83c6.88-0.17 14.18 0.07 21.86-0.39c0.63 0 1.29-0.33 1.76-0.87c0.63-1.04 0.39-2.38-0.57-3.05c-5.4-3.78-11.31-6.69-17.6-9.1c-26.15-134.89 49.98-271.83 189.8-340.88c111.64-55.13 230.87 58.24 294.47 187.02c63.56 128.7 81.14 292.37-30.5 347.5c-147.93 73.05-313.12 41.87-401.88-75.73c-0.04-0.08-0.17-0.13-0.21-0.21c-0.08-0.17-0.25-0.29-0.33-0.46c-0.21-0.21-0.37-0.34-0.58-0.55c-0.46-0.5-0.95-1.09-1.58-1.51c-13.63-9.29-27.4-17.99-41.79-26.07c-14.48-8.04-28.91-15.78-46.07-21.04c-2.21-0.47-4.25-1.23-6.71-1.58l-5-0.65c0.55-0.79 1.18-1.62 1.93-2.41c2.01-2.24 4.61-4.36 7.45-6.18c11.3-7.45 25.66-9.55 36.89-3.86c3.66 1.94 8.17 1.17 11.06-2.03c3.52-3.82 3.22-9.7-0.64-13.1l-0.08-0.17c-4.06-5.48-8.75-10.76-12.81-15.83c-2.03-2.64-4.06-5.07-5.47-7.28c-0.17-0.33-0.33-0.67-0.58-0.96c2.25-0.28 4.63-0.52 7.18-0.63z" />
				<path id="&lt;Path&gt;" class="s3" d="m830.11 846.24c27.94-26.92 93.61-22.58 137.81 17.27c23.89 21.54 37.92 74.52 4.68 108.77c-0.33 0.34-0.66 0.68-1 1.01c-28.17 28.28-73.63 29.22-104.38 3.78c-46.18-38.2-62.62-106.24-37.1-130.83z" />
				<path id="&lt;Path&gt;" class="s0" d="m891.97 882.98c18.8-9.29 40.49-3.77 48.43 12.32c7.94 16.09-0.86 36.66-19.66 45.94c-18.8 9.29-40.49 3.77-48.43-12.32c-7.94-16.09 0.86-36.66 19.66-45.94z" />
				<path id="&lt;Path&gt;" class="s4" d="m895 889.12c14.85-7.33 31.96-2.98 38.24 9.72c6.27 12.7-0.68 28.94-15.52 36.27c-14.85 7.33-31.96 2.98-38.24-9.72c-6.27-12.7 0.68-28.94 15.52-36.27z" />
				<path id="&lt;Path&gt;" class="s5" d="m889.84 899.59c1.95-1.92 4.23-3.63 6.88-4.93c11.53-5.69 24.83-2.31 29.7 7.55c4.87 9.86-0.53 22.48-12.06 28.17c-2.65 1.31-5.39 2.08-8.1 2.46c6.54-6.44 8.93-15.64 5.18-23.24c-3.75-7.6-12.51-11.3-21.6-10.02z" />
				<path id="&lt;Path&gt;" class="s0" d="m916.45 907.13c4.25-2.1 9.41-0.36 11.51 3.9c2.1 4.25 0.36 9.41-3.9 11.51c-4.25 2.1-9.41 0.36-11.51-3.9c-2.1-4.25-0.36-9.41 3.9-11.51z" />
				<path id="&lt;Path&gt;" class="s0" d="m908.62 924.21c1.32-0.65 2.92-0.11 3.57 1.21c0.65 1.32 0.11 2.92-1.21 3.57c-1.32 0.65-2.92 0.11-3.57-1.21c-0.65-1.32-0.11-2.92 1.21-3.57z" />
				<path id="&lt;Path&gt;" class="s0" d="m885.76 890.71c2.8-1.38 7.45 2.31 10.39 8.24c2.93 5.94 3.04 11.87 0.23 13.26c-2.8 1.38-7.45-2.31-10.39-8.24c-2.93-5.94-3.04-11.87-0.23-13.26z" />
				<path id="&lt;Path&gt;" class="s3" d="m698.96 636.37c-1.51-39.89 26.87-75.41 66.45-80.59c0.47-0.06 0.94-0.12 1.41-0.18c47.4-5.58 80.94 37.77 83.52 69.83c4.77 59.31-31.7 114.1-70.06 119.92c-35.03 5.31-79.07-49.1-81.33-108.99z" />
				<path id="&lt;Path&gt;" class="s0" d="m759.95 615.64c18.8-9.29 40.49-3.77 48.43 12.32c7.94 16.09-0.86 36.66-19.66 45.94c-18.8 9.29-40.49 3.77-48.43-12.32c-7.94-16.09 0.86-36.66 19.66-45.94z" />
				<path id="&lt;Path&gt;" class="s4" d="m762.98 621.77c14.85-7.33 31.96-2.98 38.24 9.72c6.27 12.7-0.68 28.94-15.52 36.27c-14.85 7.33-31.96 2.98-38.24-9.72c-6.27-12.7 0.68-28.94 15.52-36.27z" />
				<path id="&lt;Path&gt;" class="s5" d="m757.81 632.25c1.95-1.92 4.23-3.63 6.88-4.93c11.53-5.69 24.83-2.31 29.7 7.55c4.87 9.86-0.53 22.48-12.06 28.17c-2.65 1.31-5.39 2.08-8.1 2.46c6.54-6.44 8.93-15.64 5.18-23.24c-3.75-7.6-12.51-11.3-21.6-10.02z" />
				<path id="&lt;Path&gt;" class="s0" d="m784.43 639.79c4.25-2.1 9.41-0.36 11.51 3.9c2.1 4.25 0.36 9.41-3.9 11.51c-4.25 2.1-9.41 0.36-11.51-3.9c-2.1-4.25-0.36-9.41 3.9-11.51z" />
				<path id="&lt;Path&gt;" class="s0" d="m776.6 656.87c1.32-0.65 2.92-0.11 3.57 1.21c0.65 1.32 0.11 2.92-1.21 3.57c-1.32 0.65-2.92 0.11-3.57-1.21c-0.65-1.32-0.11-2.92 1.21-3.57z" />
				<path id="&lt;Path&gt;" class="s0" d="m753.73 623.37c2.8-1.38 7.45 2.31 10.39 8.24c2.93 5.94 3.04 11.87 0.23 13.26c-2.8 1.38-7.45-2.31-10.39-8.24c-2.93-5.94-3.04-11.87-0.23-13.26z" />
				<path id="&lt;Path&gt;" class="s4" d="m874.14 713.15c8.62-5.37 18.21-3.55 26.83 0.82c20.64 10.47 31.65 32.77 27.42 55.52c-1.77 9.5-6.15 18.23-15.66 21.81c-25.35 9.55-61.59-63.83-38.6-78.15z" />
				<path id="&lt;Path&gt;" class="s3" d="m529.83 566.71c34.79-18.22 69.22 11.9 81.71 24.76c-21.55 31.55-37.49 65.84-46.84 101.67c-25.32 8.55-55.41 12.07-67.66-14.85c-15.59-34.74 6.91-98.07 32.79-111.58z" />
				<path id="&lt;Path&gt;" class="s3" d="m711.16 1111.88c-13.8-25.85 7.58-48.26 30.09-63.13c33.92 14.14 70.5 22.5 108.37 24.6c2.67 17.41 5.98 63.72-29.89 80.39c-26.46 12.34-90.47-8.37-108.57-41.87z" />
				<path id="&lt;Path&gt;" class="s1" d="m835.57 749.55c2.85-2.64 6.1-4.68 9.78-5.78c7.36-3.63 32.95 48.19 25.59 51.82c-3.08 2.23-6.61 3.57-10.36 4.26c-27.67 5.05-45.66-31.2-25.02-50.3z" />
				<path id="&lt;Path&gt;" class="s0" d="m620.55 942.65c0.9-1.19-29.87-19.31-92.3-54.36c24.09-3.04 53.08 7.35 75.39 18.05c19.97 9.58 37.5 23.41 52.26 39.92c69.43 77.64 143.3 113.94 221.62 108.93c-117.15 36.5-258.32-110.75-256.97-112.54z" />
				<path id="&lt;Path&gt;" class="s4" d="m988.58 726.17c-14.52 7.17-30 5.44-34.59-3.85c-4.59-9.3 3.46-22.64 17.97-29.81c14.52-7.17 30-5.44 34.59 3.85c4.59 9.3-3.46 22.64-17.97 29.81z" />
				<path id="&lt;Path&gt;" class="s3" d="m1293.87 906.86c8.3 0.19 14.92 6.99 14.92 15.3c0 8.49-6.9 15.39-15.39 15.39c-8.39 0-15.3-6.9-15.3-15.39c0-6.34 3.82-11.75 9.33-14.08c0.19-0.09 0.37-0.09 0.56-0.09c1.96-0.28 3.92-0.75 5.88-1.12z" />
				<path id="&lt;Path&gt;" class="s6" d="m1703.12 1125.48c-5.6 3.08-11.66 5.78-18 7.46c-3.17 1.03-6.53 1.4-9.79 2.15c-1.59 0.19-2.52 0.65-3.54 1.31v-0.09c0.28-1.87 0.47-3.82 0.93-5.69c0.75-3.82 2.05-7.37 3.45-10.73c3.08-6.72 7.83-11.75 13.9-14.27c6.06-2.52 13.34-2.33 20.7-1.49c3.73 0.93 7.37 1.68 11.1 2.8l1.12 0.47c-1.49 2.24-3.26 4.38-5.04 6.25c-4.29 4.57-9.33 8.58-14.83 11.84z" />
				<path id="&lt;Path&gt;" class="s6" d="m1601.18 1121.75c10.73 7.74 26.58 25.09 23.13 59.5c-12.12-9.89-29.01-29.66-23.13-59.5z" />
				<path id="&lt;Path&gt;" class="s6" d="m1457.09 1278.15c41.78 0.19 64.91 15.2 76.66 27.14c-32.83-3.82-59.6-16.69-76.66-27.14z" />
				<path id="&lt;Path&gt;" class="s6" d="m1716.65 1541.16c-1.87 14.36-10.07 38.15-41.32 54.47c5.5-17.07 17.44-42.44 41.32-54.47z" />
				<path id="&lt;Path&gt;" class="s7" d="m1654.06 1638.16c3.64 62.49 5.6 127.31 5.6 194.55c0 3.08-10.63 8.67-27.98 8.67c-17.44 0-27.98-5.6-27.98-8.67c0-67.71-1.77-133-5.22-195.95c9.23 4.1 20.89 6.25 31.52 6.25c2.42 0 4.85-0.09 7.18-0.37c6.53-0.65 12.22-2.24 16.88-4.48z" />
				<path id="&lt;Path&gt;" class="s7" d="m1618.44 1333.83c16.79 91.21 28.54 189.14 35.07 293.88c-5.13 3.82-12.5 5.22-17.25 5.69c-13.71 1.31-29.47-2.05-38.43-7.46c-5.78-100.17-15.95-194.27-30.59-281.94c5.32 1.77 10.91 2.7 16.69 2.7c4.48 0 8.95-0.56 13.43-1.68c8.11-2.05 15.39-5.97 21.08-11.19z" />
				<path id="&lt;Path&gt;" class="s7" d="m1500.74 1069.42c2.05 0.19 4.2 0.47 6.16 0.47c14.46 0 26.3-5.6 35.63-16.88c28.17 75.27 51.2 157.43 69.3 246.41c0 0.28 0 0.56 0 0.84h0.09c1.49 7.37 3.08 14.74 4.48 22.2c-4.94 6.44-12.31 11.19-21.36 13.52c-10.35 2.7-21.08 1.49-29.66-2.89c-16.32-95.5-37.87-183.45-64.63-263.66z" />
				<path id="&lt;Path&gt;" class="s7" d="m1497.38 1059.63c-25.46-74.52-55.49-142.14-90-202.95c0.75 0.09 1.59 0.19 2.33 0.19c14.55 0 23.97-6.16 30.03-13.99c37.77 59.78 70.79 126.37 98.86 199.59c-9.79 14.64-23.32 20.24-41.22 17.16z" />
				<path id="&lt;Path&gt;" class="s7" d="m968.28 510.39c28.26 3.36 77.78 12.5 137.57 37.21c-0.93 4.2-1.77 8.39-2.52 12.5c-57.54-25.74-101.47-32.55-118.54-34.32c-5.41-5.32-10.91-10.54-16.51-15.39z" />
				<path id="&lt;Path&gt;" class="s7" d="m1312.53 685.08c-12.03-7.93-24.25-15.58-36.75-22.57c-14.74-8.3-29.57-16.04-44.86-23.5c0-7.37-0.19-14.83-0.65-22.2c28.63 20.24 56.15 43.09 82.26 68.27z" />
				<path id="&lt;Path&gt;" class="s7" d="m1401.69 787.11c11.29 15.2 22.1 30.96 32.64 47.29c-6.72 10.91-17.25 15.02-32.46 12.59c-3.45-5.97-6.99-11.75-10.54-17.53c1.31-3.26 2.61-6.53 3.73-9.89c3.36-10.63 5.6-21.36 6.62-32.46z" />
				<path id="&lt;Path&gt;" class="s3" d="m1017.06 561.69c-3.82-4.66-7.74-9.33-11.66-13.8c10.35 1.96 23.04 4.94 37.77 9.42c-12.68 0-20.89 2.05-26.11 4.38z" />
				<path id="&lt;Path&gt;" class="s3" d="m1046.16 474.02c10.54 9.61 19.03 25.09 22.66 40.01c-27.89-9.05-52.32-14.83-72.09-18.37c3.36-11.66 11.19-30.59 26.3-31.62c9.51-0.65 17.81 5.04 23.13 9.98z" />
				<path id="&lt;Path&gt;" class="s3" d="m1367.74 658.12c-9.05 1.21-17.81 4.29-25.46 8.58c-4.57 2.61-8.77 5.69-12.68 8.86c-15.95-15.67-32.36-30.5-49.34-44.39c8.95-6.34 24.44-14.64 41.69-11.75c16.88 2.8 32.27 15.86 45.79 38.71z" />
				<path id="&lt;Path&gt;" class="s2" d="m1103.52 649.36c1.21 0.28 2.52-0.56 2.8-1.77v-0.09c6.34-28.45 6.9-56.89 12.68-84.31c2.89-13.62 6.53-27.23 12.5-38.71c2.98-5.6 6.62-10.73 10.73-13.52c4.2-2.89 7.27-3.08 14.18-2.33c11.84 1.4 22.1 7.83 29.57 17.81c7.65 9.98 12.78 22.57 16.32 35.63c7.27 26.3 9.33 54.56 10.07 82.82c0.09 3.45 2.05 6.72 5.32 8.3c16.51 7.93 32.92 16.51 48.96 25.55c15.95 9.05 31.62 18.65 46.54 29.1c4.1 2.89 9.79 1.96 12.87-2.15l0.19-0.19c13.15-17.91 35.07-32.36 56.15-28.82c10.63 1.31 20.24 6.9 30.78 13.9c10.17 6.72 19.87 14.27 28.45 22.66c8.58 8.39 16.41 17.81 20.98 27.61c2.33 4.94 3.54 9.89 3.36 13.99c-0.37 4.01-1.96 6.99-5.22 9.79c-7.18 5.88-18.47 7.55-29.84 6.81c-11.38-0.84-23.5-3.92-34.14-8.11c-1.03-0.37-2.24-0.65-3.45-0.65c-5.22 0-9.51 4.29-9.42 9.51v0.19c0 27.42-8.77 56.99-26.3 78.34c-16.23 20.24-40.48 32.55-66.5 37.68c-2.52 0.19-4.85 0.65-7.18 1.31c-28.35 4.01-58.01 4.01-85.24-3.45c-13.71-3.82-26.86-9.42-38.33-17.44c-5.78-4.01-11.1-8.49-15.86-13.43c-4.57-4.85-9.14-10.91-11.66-15.76l-0.37-0.75c-0.47-1.03-1.12-1.77-1.96-2.52c-4.2-55.59-21.54-116.67-50.83-176.09c-14.36-28.91-31.43-57.08-50.55-83.01c9.23-2.15 29.85-3.26 70.7 9.51c-2.05 20.24-2.33 40.48 1.96 60.72c0.19 0.93 0.84 1.59 1.77 1.87z" />
				<path id="&lt;Path&gt;" class="s8" d="m1564.05 1325.45c2.2 11.54 53.22 1.82 51.02-9.72c11.13 12.07 3.07 20.73-24.2 26c-21.15 4.09-30.1-1.34-26.83-16.28z" />
				<path id="&lt;Path&gt;" class="s8" d="m1656.67 1629.07c-20.03 9.49-46.03 11.2-64.18-3.27c-1.98-1.58-1.63-4.97 0-6.59c1.92-1.92 4.63-1.57 6.59 0c14.53 11.59 37.09 9.29 52.88 1.82c5.4-2.56 10.13 5.49 4.71 8.05z" />
				<path id="&lt;Path&gt;" class="s8" d="m1550.68 1035.72c-12.77 19.72-36.65 31.44-60.11 28.7c-2.51-0.29-4.66-1.9-4.66-4.66c0-2.31 2.16-4.96 4.66-4.66c20.19 2.36 40.93-6.91 52.05-24.08c3.26-5.03 11.33-0.35 8.05 4.71z" />
				<path id="&lt;Path&gt;" class="s8" d="m1438.54 834.59c-9.45 12.29-24.27 19.76-39.89 19.23c-2.53-0.08-4.66-2.07-4.66-4.66c0-2.46 2.14-4.75 4.66-4.66c12.03 0.4 24.44-5 31.83-14.61c1.54-2 3.98-3.08 6.38-1.67c1.98 1.16 3.21 4.38 1.67 6.38z" />
				<path id="&lt;Path&gt;" class="s3" d="m1122.34 829.18c-14.66-109.43-50.96-192.61-108.92-249.56c25.31-15.32 57.39-15.66 96.24-1c3.13-27.98 9.69-50.72 19.68-68.23c14.99-26.26 34.97-6.72 60.96 8.27c17.32 9.99 28.31 51.3 32.98 123.91c2 103.92-24.65 176.2-79.94 216.84c-11.33-6.26-18.32-16.34-20.98-30.24z" />
				<path id="&lt;Path&gt;" class="s3" d="m1375.83 668.22c29.31-7.99 75.28 37.31 79.28 39.97c4 2.66 18.65 35.31 17.89 37.97c-0.77 2.66-7.23 22.65-17.89 29.98c-7.11 4.89-28.36 5.77-63.77 2.66c-9.14 61.29-30.16 82.61-58.14 103.92c-18.65 14.21-42.64 19.1-71.95 14.66c54.63-33.75 73.95-99.45 57.96-197.08c18.21-16.06 37.08-26.76 56.63-32.09z" />
				<path id="&lt;Compound Path&gt;" fill-rule="evenodd" class="s4" d="m1265.05 619.33c10.45-8.3 33.11-22.76 59.97-18.37c25.18 4.2 46.82 23.78 64.45 58.1c13.06 2.7 24.53 9.7 33.95 15.95c11.1 7.27 21.54 15.58 31.24 24.9c9.61 9.51 18.56 19.87 24.9 33.2c2.98 6.62 5.41 14.27 4.94 22.94c-0.37 8.77-5.41 17.91-12.12 23.04c-13.06 10.35-29.1 11.84-42.81 10.91c-1.03-0.09-1.96-0.28-2.98-0.37c64.82 91.21 117.14 199.77 157.06 325.12c0.75-3.26 1.68-6.53 2.89-9.98c0.84-2.33 2.61-4.29 4.85-5.32c2.24-1.03 4.85-1.21 7.18-0.28c0.47 0.19 44.95 17.16 44.86 72.93c4.48-10.26 9.05-20.61 16.23-29.85c-0.09-0.28-0.19-0.56-0.19-0.75v-0.93l-0.09-1.77l0.09-3.45c0.19-2.33 0.37-4.66 0.75-6.99c0.56-4.57 1.87-9.23 3.45-13.8c3.36-8.95 10.17-18 19.77-22.66c9.61-4.76 19.87-5.13 29.47-4.57c4.57 0.75 9.23 1.4 13.8 2.52l13.06 3.92c4.57 1.4 7.18 6.16 5.78 10.73l-0.19 0.65l-0.28 0.75v0.09c-4.29 8.49-9.23 14.08-15.2 19.77c-5.97 5.41-12.59 9.79-19.68 13.24c-7.09 3.17-14.46 5.78-22.01 7.09c-3.73 0.93-7.55 1.12-11.29 1.59c-2.98 0.37-6.62 0.19-10.17-0.19c-5.69 8.49-9.7 18.84-13.24 28.91c-4.38 13.15-7.74 26.67-10.82 40.38c-2.98 13.62-5.41 27.42-7.55 41.22c-1.12 6.9-2.05 13.8-2.89 20.8l-1.21 10.35l-0.56 5.04l-0.19 2.42v0.47c16.97 83.75 29.38 173.47 37.4 268.88c10.45-19.49 27.79-39.73 56.15-47.38c2.61-0.65 5.32-0.28 7.55 1.21c2.24 1.49 3.73 3.82 4.1 6.53c0.09 0.65 7.46 62.58-63.98 91.21c4.48 68.92 6.81 140.64 6.81 215.16c0 16.32-18.75 27.33-46.63 27.33c-27.89 0-46.63-11.01-46.63-27.33c0-188.12-13.43-357.67-39.92-507.92c-71.16-2.98-118.91-45.51-120.97-47.47c-2.7-2.42-3.73-6.25-2.61-9.7c1.12-3.45 4.1-5.97 7.74-6.44c55.12-6.72 88.6 7.55 108.19 22.76c-34.04-172.07-86.08-317.38-156.13-434.8c-2.8 4.66-5.88 9.14-9.33 13.34c-13.9 17.35-32.83 29.66-53.16 37.4c5.32 5.97 8.58 13.71 8.58 22.29c0 18.75-15.3 34.04-34.04 34.04c-18.75 0-33.95-15.3-33.95-34.04c0-4.1 0.84-7.93 2.15-11.56c-22.66 1.31-45.42-0.28-67.9-6.34c-15.48-4.29-30.59-10.73-44.02-20.05c-6.53-4.57-12.68-9.7-18.19-15.48c-0.09 2.24 0 4.48-0.09 6.72c-3.36 75.27-34.69 129.73-90.75 157.34c-56.43 27.89-115.46 41.22-172.07 41.13c3.17 23.5 4.57 75.55-40.94 96.72c-37.96 17.63-111.27-9.79-132.9-49.9c-9.05-16.6-16.04-47.94 27.05-80.86c-40.76-20.43-76.94-49.8-105.67-87.58c-12.68-8.67-25.93-16.88-39.26-24.44c-13.62-7.74-28.07-15.2-41.88-19.4c-1.59-0.28-3.45-0.93-4.94-1.21l-2.33-0.28l-1.12-0.19l-2.05-0.09c-2.8-0.37-6.34-1.03-10.26-3.92c-4.1-2.61-6.53-9.14-5.97-13.24c1.12-8.39 4.85-12.31 8.02-16.14c3.45-3.82 7.18-6.81 11.1-9.33c7.27-4.76 15.48-8.02 24.34-9.33c-1.4-1.96-2.8-4.1-4.2-6.44c-1.03-1.96-2.05-4.29-2.89-7.18c-0.65-2.8-1.68-6.34-0.19-11.47c1.68-5.22 6.53-8.86 9.79-9.89c1.77-0.56 3.17-0.75 4.76-1.03v-0.09c-5.88-35.16-5.41-70.51 1.03-104.74c-51.86 13.8-72.28-10.82-80.02-27.89c-18.65-41.6 4.1-116.49 41.22-135.89c44.11-23.13 84.5 9.14 101.38 25.93c34.41-44.86 81.05-83.38 137.47-111.27c62.39-30.78 126.09-15.3 182.71 25.27v-0.37c1.21 0 14.08 0.09 35.35 3.08c4.1-15.58 15.67-45.51 43.65-47.38c12.68-0.84 25.46 4.29 36.93 14.83c16.23 14.92 27.79 38.61 30.12 60.81c7.18 2.61 14.55 5.5 22.01 8.58c1.49-4.38 3.17-8.67 5.22-12.87c3.54-7.09 7.93-14.46 15.48-20.24c3.73-2.8 8.39-5.13 13.43-6.06c5.32-0.93 9.23-0.65 13.43-0.28c16.97 1.4 32.92 11.66 42.62 24.53c10.07 12.87 15.86 27.51 20.05 42.06c3.26 11.84 5.5 23.78 6.99 35.81c12.5 8.39 24.81 17.44 36.93 26.77zm-700.33 73.77c9.33-35.81 25.27-70.04 46.82-101.66c-12.5-12.87-46.91-43-81.7-24.72c-25.93 13.52-48.4 76.85-32.83 111.55c12.31 26.95 42.34 23.41 67.71 14.83zm1120.4 439.84c6.34-1.68 12.4-4.38 18-7.46c5.5-3.26 10.54-7.27 14.83-11.84c1.77-1.87 3.54-4.01 5.04-6.25l-1.12-0.47c-3.73-1.12-7.37-1.87-11.1-2.8c-7.37-0.84-14.64-1.03-20.7 1.49c-6.06 2.52-10.82 7.55-13.9 14.27c-1.4 3.36-2.7 6.9-3.45 10.73c-0.47 1.87-0.65 3.82-0.93 5.69v0.09c1.03-0.65 1.96-1.12 3.54-1.31c3.26-0.75 6.62-1.12 9.79-2.15zm31.52 408.22c-23.88 12.03-35.81 37.4-41.32 54.47c31.24-16.32 39.45-40.1 41.32-54.47zm-79.46 101.47c-2.33 0.28-4.76 0.37-7.18 0.37c-10.63 0-22.29-2.15-31.52-6.25c3.45 62.95 5.22 128.24 5.22 195.95c0 3.08 10.54 8.67 27.98 8.67c17.35 0 27.98-5.6 27.98-8.67c0-67.24-1.96-132.06-5.6-194.55c-4.66 2.24-10.35 3.82-16.88 4.48zm-12.87-461.38c3.45-34.41-12.4-51.76-23.13-59.5c-5.88 29.84 11.01 49.62 23.13 59.5zm5.32 32.18c0.65-2.33 1.4-4.66 2.15-7.09c-0.19 0-0.37 0.09-0.56 0.09c-1.49 0-2.89-0.28-4.29-1.03c-6.53-3.36-14.36-8.86-21.73-16.32c5.32 20.15 10.45 40.57 15.2 61.46c2.8-12.4 5.78-24.81 9.23-37.12zm-32.27 131.6c-4.48 1.12-8.95 1.68-13.43 1.68c-5.78 0-11.38-0.93-16.69-2.7c14.64 87.67 24.81 181.77 30.59 281.94c8.95 5.41 24.72 8.77 38.43 7.46c4.76-0.47 12.12-1.87 17.25-5.69c-6.53-104.74-18.28-202.67-35.07-293.88c-5.69 5.22-12.96 9.14-21.08 11.19zm-31.99-11.94c8.58 4.38 19.31 5.6 29.66 2.89c9.05-2.33 16.41-7.09 21.36-13.52c-1.4-7.46-2.98-14.83-4.48-22.2h-0.09c0-0.28 0-0.56 0-0.84c-18.09-88.98-41.13-171.14-69.3-246.41c-9.33 11.29-21.17 16.88-35.63 16.88c-1.96 0-4.1-0.28-6.16-0.47c26.77 80.21 48.31 168.16 64.63 263.66zm-108.28-54.93c17.07 10.45 43.83 23.32 76.66 27.14c-11.75-11.94-34.88-26.95-76.66-27.14zm-166.01-389.76c26.02-5.13 50.27-17.44 66.5-37.68c17.53-21.36 26.3-50.92 26.3-78.34v-0.19c-0.09-5.22 4.2-9.51 9.42-9.51c1.21 0 2.42 0.28 3.45 0.65c10.63 4.2 22.76 7.27 34.14 8.11c11.38 0.75 22.66-0.93 29.84-6.81c3.26-2.8 4.85-5.78 5.22-9.79c0.19-4.1-1.03-9.05-3.36-13.99c-4.57-9.79-12.4-19.21-20.98-27.61c-8.58-8.39-18.28-15.95-28.45-22.66c-10.54-6.99-20.15-12.59-30.78-13.9c-21.08-3.54-43 10.91-56.15 28.82l-0.19 0.19c-3.08 4.1-8.77 5.04-12.87 2.15c-14.92-10.45-30.59-20.05-46.54-29.1c-16.04-9.05-32.46-17.63-48.96-25.55c-3.26-1.59-5.22-4.85-5.32-8.3c-0.75-28.26-2.8-56.52-10.07-82.82c-3.54-13.06-8.67-25.65-16.32-35.63c-7.46-9.98-17.72-16.41-29.57-17.81c-6.9-0.75-9.98-0.56-14.18 2.33c-4.1 2.8-7.74 7.93-10.73 13.52c-5.97 11.47-9.61 25.09-12.5 38.71c-5.78 27.42-6.34 55.87-12.68 84.31v0.09c-0.28 1.21-1.59 2.05-2.8 1.77c-0.93-0.28-1.59-0.93-1.77-1.87c-4.29-20.24-4.01-40.48-1.96-60.72c-40.85-12.78-61.46-11.66-70.7-9.51c19.12 25.93 36.19 54.09 50.55 83.01c29.29 59.41 46.63 120.5 50.83 176.09c0.84 0.75 1.49 1.49 1.96 2.52l0.37 0.75c2.52 4.85 7.09 10.91 11.66 15.76c4.76 4.94 10.07 9.42 15.86 13.43c11.47 8.02 24.62 13.62 38.33 17.44c27.23 7.46 56.89 7.46 85.24 3.45c2.33-0.65 4.66-1.12 7.18-1.31zm116.3-31.71c34.51 60.81 64.54 128.43 90 202.95c17.91 3.08 31.43-2.52 41.22-17.16c-28.07-73.21-61.09-139.8-98.86-199.59c-6.06 7.83-15.48 13.99-30.03 13.99c-0.75 0-1.59-0.09-2.33-0.19zm-587.67 297.05c35.91-16.69 32.55-62.95 29.94-80.39c-37.87-2.05-74.43-10.45-108.37-24.62c-22.57 14.92-43.93 37.31-30.12 63.14c18.09 33.48 82.17 54.28 108.56 41.88zm243.14-485.17c-22.57-45.79-52.32-89.63-86.18-124.7c-0.12 0-0.22 0-0.28 0v-0.28c-61.28-63.23-136.17-97.46-207.98-62.02c-139.8 69.02-215.91 205.93-189.79 340.89c6.25 2.33 12.22 5.32 17.63 9.05c0.93 0.65 1.21 2.05 0.56 3.08c-0.47 0.56-1.12 0.84-1.77 0.84c-7.65 0.47-15.02 0.28-21.82 0.37c-2.61 0.19-4.94 0.37-7.18 0.65c0.19 0.28 0.37 0.65 0.56 0.93c1.4 2.24 3.45 4.66 5.5 7.37c4.01 5.04 8.67 10.35 12.78 15.76l0.09 0.19c3.82 3.45 4.1 9.33 0.65 13.15c-2.89 3.17-7.46 3.92-11.1 1.96c-11.19-5.69-25.55-3.54-36.93 3.92c-2.8 1.77-5.41 3.92-7.37 6.16c-0.84 0.75-1.4 1.59-1.96 2.42l4.94 0.65c2.52 0.37 4.57 1.12 6.72 1.59c17.16 5.22 31.62 12.96 46.07 20.98c14.46 8.11 28.17 16.79 41.78 26.11c0.65 0.37 1.12 1.03 1.59 1.49c0.28 0.19 0.37 0.37 0.65 0.56c0 0.19 0.19 0.28 0.28 0.47c0.09 0.09 0.19 0.09 0.19 0.19c88.79 117.61 253.96 148.76 401.88 75.73c111.64-55.12 94.1-218.8 30.5-347.51zm-57.45-120.69c3.92 4.48 7.83 9.14 11.66 13.8c5.22-2.33 13.43-4.38 26.11-4.38c-14.74-4.48-27.42-7.46-37.77-9.42zm17.63-83.85c-15.11 1.03-22.94 19.96-26.3 31.62c19.77 3.54 44.21 9.33 72.09 18.37c-3.64-14.92-12.12-30.4-22.66-40.01c-5.32-4.94-13.62-10.63-23.13-9.98zm-38.24 61.74c17.07 1.77 61 8.58 118.54 34.32c0.75-4.1 1.59-8.3 2.52-12.5c-59.78-24.72-109.31-33.86-137.57-37.21c5.6 4.85 11.1 10.07 16.51 15.39zm327.73 159.3c-26.11-25.18-53.63-48.03-82.26-68.27c0.47 7.37 0.65 14.83 0.65 22.2c15.3 7.46 30.12 15.2 44.86 23.5c12.5 6.99 24.72 14.64 36.75 22.57zm-3.73 237.08c0-8.3-6.62-15.11-14.92-15.3c-1.96 0.37-3.92 0.84-5.88 1.12c-0.19 0-0.37 0-0.56 0.09c-5.5 2.33-9.33 7.74-9.33 14.08c0 8.49 6.9 15.39 15.3 15.39c8.49 0 15.39-6.9 15.39-15.39zm93.08-75.17c15.2 2.42 25.74-1.68 32.46-12.59c-10.54-16.32-21.36-32.08-32.64-47.29c-1.03 11.1-3.26 21.82-6.62 32.46c-1.12 3.36-2.42 6.62-3.73 9.89c3.54 5.78 7.09 11.56 10.54 17.53zm-840.04-9.33c-0.09 0.28 0.65 0 1.21-0.56c-0.09 0.09-0.47 0.09-0.65 0.19c-0.19 0.19-0.37 0.31-0.56 0.37zm760.11-218.24c-17.25-2.89-32.74 5.41-41.69 11.75c16.97 13.9 33.39 28.73 49.34 44.39c3.92-3.17 8.11-6.25 12.68-8.86c7.65-4.29 16.41-7.37 25.46-8.58c-13.52-22.85-28.91-35.91-45.79-38.71z" />
			</g>
		</g>
	</g>
</svg>