<?xml version="1.0" encoding="UTF-8" standalone="no"?>
<!-- Created with Inkscape (http://www.inkscape.org/) -->

<svg
   xmlns:dc="http://purl.org/dc/elements/1.1/"
   xmlns:cc="http://creativecommons.org/ns#"
   xmlns:rdf="http://www.w3.org/1999/02/22-rdf-syntax-ns#"
   xmlns:svg="http://www.w3.org/2000/svg"
   xmlns="http://www.w3.org/2000/svg"
   xmlns:sodipodi="http://sodipodi.sourceforge.net/DTD/sodipodi-0.dtd"
   xmlns:inkscape="http://www.inkscape.org/namespaces/inkscape"
   width="390.87955"
   height="591.99414"
   id="svg2"
   version="1.1"
   inkscape:version="0.48.2 r9819"
   sodipodi:docname="PandaPeace.svg"
   inkscape:export-filename="/home/Maw/Imágenes/RelatosdeunFriki/PandaPeace.png"
   inkscape:export-xdpi="276.29999"
   inkscape:export-ydpi="276.29999">
  <defs
     id="defs4" />
  <sodipodi:namedview
     id="base"
     pagecolor="#ffffff"
     bordercolor="#666666"
     borderopacity="1.0"
     inkscape:pageopacity="0.0"
     inkscape:pageshadow="2"
     inkscape:zoom="1.8976376"
     inkscape:cx="72.391396"
     inkscape:cy="399.67375"
     inkscape:document-units="px"
     inkscape:current-layer="layer2"
     showgrid="false"
     showguides="true"
     inkscape:guide-bbox="true"
     fit-margin-top="30"
     fit-margin-left="30"
     fit-margin-right="30"
     fit-margin-bottom="30"
     inkscape:window-width="1920"
     inkscape:window-height="1021"
     inkscape:window-x="0"
     inkscape:window-y="27"
     inkscape:window-maximized="1" />
  <metadata
     id="metadata7">
    <rdf:RDF>
      <cc:Work
         rdf:about="">
        <dc:format>image/svg+xml</dc:format>
        <dc:type
           rdf:resource="http://purl.org/dc/dcmitype/StillImage" />
        <dc:title />
      </cc:Work>
    </rdf:RDF>
  </metadata>
  <g
     inkscape:groupmode="layer"
     id="layer2"
     inkscape:label="Background"
     transform="translate(-162.33718,-222.66657)">
    <g
       id="g5079">
      <path
         sodipodi:nodetypes="ssccccccsccscccccccsscccccccccccccccccccsccccccc"
         inkscape:connector-curvature="0"
         id="path4264"
         d="m 283.71875,253.03125 c -42.97753,-4.88875 -83.42821,40.48791 -91.3125,69.40625 -1.42556,5.22873 19.5611,15.38505 31,22.34375 -17.47104,29.68177 -23.8652,63.53199 -28.40625,98.0625 2.81865,-3.68534 3.73451,-3.93535 5.21875,-5.21875 -2.04334,6.29046 -1.77825,12.58454 -0.65625,18.875 1.45487,-4.67634 4.02026,-6.34831 6.28125,-8.875 9.37026,17.15709 55.83783,48.04361 65.71875,52.03125 -13.63767,19.60682 -37.27641,57.46087 -44.25,84.375 -9.77925,37.74241 0.53951,62.46292 51.1875,29.3125 -51.89158,113.25258 -49.95444,240.55342 56.1875,115.8125 8.21567,4.57609 38.13013,36.97354 56.8125,50.40625 18.09722,13.01199 47.73216,3.63807 51.875,-57.78125 7.13543,4.0219 14.27082,3.18681 21.40625,4.28125 -0.78069,-7.16137 -1.21667,-13.14184 -2.75,-22.9375 l 5.1875,-2.15625 C 460.51476,693.20038 447.70333,688.84689 442.5,681.4375 445.13781,643.36304 432.55591,595.69182 422.9375,556 c 14.74385,-9.3998 29.42128,-18.83573 42.5625,-29.4375 0,0 1.51122,3.26748 3.03125,3.90625 2.39899,1.00815 29.07999,-1.50271 30.3125,-2.21875 1.19789,-0.69593 3.09375,-35.96875 3.09375,-35.96875 l 20.84375,-9.65625 c 2.93993,-1.36398 -9.67237,-23.17238 -17.8125,-26.34375 l -17.125,9.65625 1.5,-17.03125 c -6.97068,-6.88068 -26.19503,-7.45877 -32.75,-4.34375 l 0,8.03125 -5.40625,-6.71875 5.84375,-3.6875 -4.125,-0.21875 c -6.10655,-10.76642 -4.59328,-53.50761 -4.5625,-59.65625 16.47857,-9.53499 34.56228,-9.9218 52.71875,-24.0625 -2.79185,-31.4076 -18.58482,-52.91994 -40.125,-70.0625 -23.80655,4.67711 -38.08803,19.41851 -56.625,31.4375 -13.26332,-6.05808 -26.63715,-11.45425 -45.44178,-14.04901 6.7802,-3.73306 19.20531,-6.69481 29.24274,-6.76349 -10.39928,-1.65218 -22.48004,-0.47276 -34.33454,2.81613 9.86126,-5.6383 17.13132,-10.55586 29.89276,-15.10659 -31.18247,-1.2662 -53.8616,7.81881 -74.79668,13.38421 -1.02407,-18.01285 -14.80837,-45.69792 -25.15625,-46.875 z m 167.36065,201.5963 c 2.78858,0.92409 5.01248,0.20133 5.82685,2.30995 l -0.91741,10.58833 -26.20759,2.13042 c 6.18267,-3.26478 9.64307,-7.50628 14.11097,-9.94898 l 4.42315,5.35491 z"
         style="fill:#000000;stroke:none" />
      <path
         sodipodi:nodetypes="ccccccsccccccccccssssccsscccccccccc"
         inkscape:connector-curvature="0"
         id="path4292"
         d="m 306.63277,308.00021 c 19.68492,-11.72951 42.54138,-18.83934 67.17532,-20.05044 -8.43729,3.84954 -23.06552,12.14709 -29.63392,17.60712 9.87896,-2.50818 19.85805,-5.00062 29.34896,-6.09761 -10.41646,1.69985 -19.38481,5.42704 -27.76478,9.97797 41.64976,-2.96198 72.97359,23.33641 100.86426,45.76852 -1.32102,7.54677 -3.13669,15.49019 -3.46853,23.64672 -1.06809,26.25296 3.18667,53.27806 4.98691,64.41971 l 3.25369,0.9761 -4.4467,2.06067 c 3.75964,2.19811 7.05603,4.58153 8.78495,7.59193 l -7.04966,-2.49449 c -0.20544,2.90538 -0.37522,5.73944 -0.9761,9.43569 l -3.57906,-5.53127 c -18.6993,17.86879 -53.82184,36.01295 -77.11235,48.69684 l 7.17352,-1.57102 c 55.27087,44.63112 59.65943,118.48802 63.75683,181.17447 -0.42975,19.43023 2.03334,35.74311 0.12662,48.75774 -3.84053,26.21411 -14.13985,40.2675 -23.17223,45.70895 -6.33493,3.81641 -17.09347,2.02554 -26.15123,-4.37272 -12.05149,-8.51298 -22.98245,-24.23712 -34.83644,-36.58301 -11.76057,-12.24858 -21.32637,-19.8455 -30.06263,-27.04765 1.70628,4.26717 6.88094,8.94097 8.24267,11.71327 -7.51789,12.07616 -11.47277,15.20742 -16.23988,20.17169 -38.38642,39.97403 -67.93903,48.76326 -65.70219,-3.26899 1.10232,-25.64169 11.17328,-65.75816 31.8353,-123.40668 1.58038,-21.15417 2.82542,-41.30233 3.25369,-59.00017 -6.77648,-3.77328 -4.90373,-40.56033 8.89341,-54.66192 -57.19696,-17.74998 -70.50575,-40.30265 -88.28334,-54.66192 l -4.98899,4.55516 0,-15.61769 -2.81986,1.08456 c 2.13723,-16.83474 13.97367,-68.67601 33.1876,-99.34588 11.24231,-8.12591 24.90999,-14.43279 40.77952,-19.08829 z"
         style="fill:#ffffff;stroke:none" />
      <path
         style="fill:#000000;stroke:none"
         d="m 363.61924,345.28229 c -12.95672,16.63567 -16.84452,36.71129 -20.94176,56.70746 11.00797,15.46093 72.63252,25.73877 85.76708,23.05946 1.48862,-21.18615 1.10012,-43.0252 -4.58836,-66.70773 -20.07899,-11.91578 -40.15797,-14.25413 -60.23696,-13.05919 z"
         id="path4298"
         inkscape:connector-curvature="0"
         sodipodi:nodetypes="ccccc" />
      <path
         sodipodi:nodetypes="cccssc"
         inkscape:connector-curvature="0"
         id="path4294"
         d="m 229.49331,351.08443 c -3.38042,12.26823 -11.74766,67.0387 -7.70041,72.34028 19.45784,5.45957 72.82765,-1.32012 93.25005,-18.94058 -7.08911,-20.89714 -27.30046,-54.57164 -31.59632,-57.05744 -4.04501,-2.34065 -49.4565,-1.53282 -53.95334,3.65774 z"
         style="fill:#000000;stroke:none" />
      <path
         sodipodi:nodetypes="cscccsssc"
         inkscape:connector-curvature="0"
         id="path4266"
         d="m 226.69597,342.51852 c 0,0 1.98899,-5.69556 4.90816,-7.7457 11.14035,-7.82389 40.66108,-18.01461 40.49238,-18.94246 l -0.30676,2.76085 34.9049,-10.53832 c -2.8912,-19.56877 -20.44704,-45.75045 -24.89345,-49.93071 -3.70452,-3.48278 -27.43626,3.47839 -39.23022,10.76716 -29.05651,17.95719 -48.35296,50.89461 -43.48345,54.30327 z"
         style="fill:#333333;stroke:none" />
      <path
         sodipodi:nodetypes="cccccc"
         inkscape:connector-curvature="0"
         id="path4268"
         d="m 445.97187,353.79584 c -0.36152,11.96235 0.14461,14.86713 -0.32537,25.16183 16.50667,-9.76694 37.34689,-13.51915 47.93764,-24.40264 1.82757,-10.92659 -8.91881,-43.92954 -36.11591,-59.97628 -20.01794,5.1646 -34.57612,17.6077 -50.10677,28.84935 9.0768,4.98636 26.26765,19.32011 38.61041,30.36774 z"
         style="fill:#333333;stroke:none" />
      <path
         sodipodi:nodetypes="ssssss"
         inkscape:connector-curvature="0"
         id="path4270"
         d="m 233.4447,353.10176 c -6.8023,6.67516 -10.36601,66.902 -8.74268,67.64067 6.07891,2.76612 28.66884,2.93996 47.20624,-1.84124 19.17616,-4.94595 35.88566,-13.87334 36.84612,-15.49072 1.21788,-2.05087 -21.09408,-48.45765 -28.22196,-52.30266 -9.40661,-5.07423 -42.77518,-2.23799 -47.08772,1.99395 z"
         style="fill:#333333;stroke:none" />
      <path
         transform="matrix(1.048,0,0,1.048,-11.258108,-16.060507)"
         d="m 276.0844,388.91605 c 0,5.29434 -4.29191,9.58626 -9.58626,9.58626 -5.29435,0 -9.58627,-4.29192 -9.58627,-9.58626 0,-5.29435 4.29192,-9.58627 9.58627,-9.58627 5.29435,0 9.58626,4.29192 9.58626,9.58627 z"
         sodipodi:ry="9.5862637"
         sodipodi:rx="9.5862637"
         sodipodi:cy="388.91605"
         sodipodi:cx="266.49814"
         id="path4272"
         style="fill:#000000;fill-opacity:1;stroke:none"
         sodipodi:type="arc" />
      <path
         sodipodi:type="arc"
         style="fill:#ffffff;fill-opacity:1;stroke:none"
         id="path4274"
         sodipodi:cx="266.49814"
         sodipodi:cy="388.91605"
         sodipodi:rx="9.5862637"
         sodipodi:ry="9.5862637"
         d="m 276.0844,388.91605 c 0,5.29434 -4.29191,9.58626 -9.58626,9.58626 -5.29435,0 -9.58627,-4.29192 -9.58627,-9.58626 0,-5.29435 4.29192,-9.58627 9.58627,-9.58627 5.29435,0 9.58626,4.29192 9.58626,9.58627 z"
         transform="matrix(0.68,0,0,0.68,89.267291,124.75989)" />
      <path
         sodipodi:nodetypes="ccccc"
         inkscape:connector-curvature="0"
         id="path4276"
         d="m 365.28046,348.48148 c -11.94418,15.33563 -15.52815,33.84238 -19.3052,52.27589 10.14772,14.25269 66.95644,23.72734 79.06456,21.25741 1.37229,-19.53049 1.01415,-39.66287 -4.22979,-61.49466 -18.50986,-10.98458 -37.01971,-13.1402 -55.52957,-12.03864 z"
         style="fill:#333333;stroke:none" />
      <path
         sodipodi:nodetypes="ccccccc"
         inkscape:connector-curvature="0"
         id="path4278"
         d="m 410.28978,385.35659 c -14.51239,-0.67497 -17.91937,1.81268 -38.6104,8.89341 9.59767,-0.9335 18.89951,-1.05347 28.09015,-0.86765 -8.92959,0.3434 -17.91024,0.61021 -26.2464,1.84375 12.53531,2.10315 30.12442,-2.68526 36.98356,7.15811 -10.08257,-4.62939 -32.23804,-3.22234 -49.56448,-4.22979 32.84242,-16.22881 39.40575,-19.91979 49.34757,-12.79783 z"
         style="fill:#000000;stroke:none" />
      <path
         sodipodi:nodetypes="ccccc"
         inkscape:connector-curvature="0"
         id="path4280"
         d="m 280.46772,607.47487 3.90442,-51.19132 c -1.29021,-6.95076 -3.61894,-32.68057 8.24267,-52.27588 l -15.40078,-5.42281 c -23.86768,31.6867 -100.83212,171.26786 3.25369,108.89001 z"
         style="fill:#333333;stroke:none" />
      <path
         sodipodi:nodetypes="cccccc"
         inkscape:connector-curvature="0"
         id="path4282"
         d="m 441.74208,686.21407 c 7.33534,4.83713 16.96304,9.16484 21.90815,14.53313 -2.50034,0.0752 -4.67961,-0.0101 -7.70039,0.32537 4.30416,6.69306 6.06008,14.17019 6.61583,22.01661 -6.61583,-0.11348 -13.23166,-1.12533 -19.84749,-4.12134 -1.28004,-11.03726 -1.99559,-22.00395 -0.9761,-32.75377 z"
         style="fill:#333333;stroke:none" />
      <path
         sodipodi:nodetypes="ccccccccccc"
         inkscape:connector-curvature="0"
         id="path4284"
         d="m 373.32746,502.95423 c 12.76983,11.80725 25.2103,20.92463 40.33899,51.9959 18.65375,-9.57548 34.97736,-21.09274 51.229,-32.66999 -0.7688,-7.32453 -1.73392,-14.83026 -0.15338,-21.77999 l -13.80422,-7.20887 13.49746,5.52169 1.5338,-7.66902 7.20887,0.30676 c 3.8068,-8.23197 -9.34893,-14.9127 -15.03126,-21.31984 -11.4748,1.18054 -22.51307,1.12044 -31.45474,2.50741 -16.6986,10.5077 -34.39587,21.71117 -53.36452,30.31595 z"
         style="fill:#333333;stroke:none" />
      <path
         sodipodi:nodetypes="cssscccccccccccc"
         inkscape:connector-curvature="0"
         id="path4286"
         d="m 490.00508,493.70433 c -3.81633,-0.86899 -10.95586,-1.00232 -16.26523,-1.04531 -3.38431,-0.0274 -6.15379,-0.46884 -6.42759,0.42022 -2.11627,6.87186 -3.61282,25.48677 1.01677,30.1103 3.19064,3.18647 19.29054,1.56922 23.95363,1.20789 3.10428,-5.02615 6.6825,-19.26597 5.42281,-34.81444 7.44733,-2.27952 14.89465,-4.81473 22.34198,-8.24267 -0.85566,-4.93219 -6.88769,-16.2957 -13.77394,-21.14896 -6.99319,2.94536 -13.90635,5.75797 -21.0405,11.82173 l 4.98899,6.94119 c -3.70469,-3.21589 -6.59993,-8.21257 -11.60482,-8.56803 7.40404,-1.58541 6.50379,-13.05689 8.35113,-21.25742 -8.69464,-2.51117 -17.37896,-5.21853 -26.35485,-2.38603 l -1.19302,23.20962 c 7.96066,6.1097 19.28412,14.71389 15.07541,21.36587 7.35023,-0.15716 11.88336,0.25129 15.50923,2.38604 z"
         style="fill:#333333;stroke:none" />
      <path
         style="fill:#000000;stroke:none"
         d="m 324.02539,417.88127 c -0.62117,2.21172 6.41403,8.773 8.36049,8.49113 2.33253,-0.33779 7.70309,-5.72073 7.9686,-9.92809 -2.01847,-1.28215 -11.12044,-3.96404 -16.32909,1.43696 z"
         id="path4296"
         inkscape:connector-curvature="0"
         sodipodi:nodetypes="cscc" />
      <path
         sodipodi:nodetypes="cscc"
         inkscape:connector-curvature="0"
         id="path4288"
         d="m 325.47704,418.32727 c -0.51572,1.83626 5.32517,7.28367 6.94119,7.04965 1.93655,-0.28044 6.39539,-4.74956 6.61583,-8.24267 -1.67581,-1.06448 -9.23261,-3.29109 -13.55702,1.19302 z"
         style="fill:#f4d7d7;stroke:none" />
      <path
         sodipodi:nodetypes="ccccc"
         inkscape:connector-curvature="0"
         id="path4290"
         d="m 279.30538,455.55974 c 26.36394,0.45041 68.29607,5.67934 78.07053,17.79211 l 16.25831,-19.93943 C 346.79159,447.7668 308.99124,443.1829 276.23778,449.7313 z"
         style="fill:#a02c2c;stroke:none" />
      <path
         sodipodi:nodetypes="cscccccccccccccsc"
         inkscape:connector-curvature="0"
         id="path4300"
         d="m 347.58834,308.46811 c -0.65995,0.32696 -1.42749,0.60913 -1.86528,0.99201 -1.34973,1.18042 -1.71849,2.46915 -2.30475,3.6094 20.7176,-1.08481 24.16303,1.86054 33.74365,3.37436 -16.83731,0.28042 -21.47881,1.74107 -25.92126,3.22099 7.46671,2.52734 4.29391,24.42078 3.16347,25.8254 -2.53676,-7.68819 -6.61227,-15.37637 -11.59938,-23.06456 l -0.53683,6.67204 -5.90514,-4.37133 6.90211,6.74873 0.92028,-4.90817 c 5.06256,7.64717 7.40245,15.09987 9.66296,22.54689 3.39733,-2.41352 5.05379,-17.40517 1.5338,-28.37534 7.95709,-2.62615 19.42813,-1.73834 29.60238,-2.14732 -8.31505,-5.23651 -28.85941,-7.90901 -36.06987,-7.9505 1.45392,-2.04409 3.14736,-2.42388 2.8907,-2.69365 -0.2033,-0.21367 -2.83877,0.16439 -4.21684,0.52105 z"
         style="fill:#000000;stroke:none" />
      <path
         sodipodi:nodetypes="cccc"
         inkscape:connector-curvature="0"
         id="path4302"
         d="m 295.33361,479.41037 -20.47625,-29.98583 c 34.74574,-7.46253 77.23152,-1.62026 100.31066,3.52774 l -22.70027,28.06858"
         style="fill:none;stroke:#000000;stroke-width:3;stroke-linecap:round;stroke-linejoin:round;stroke-miterlimit:4;stroke-opacity:1;stroke-dasharray:none" />
      <path
         sodipodi:nodetypes="cc"
         inkscape:connector-curvature="0"
         id="path4304"
         d="m 279.4971,455.98155 c 22.58376,-1.14597 57.53227,5.09256 68.40758,11.65689"
         style="fill:none;stroke:#000000;stroke-width:3;stroke-linecap:round;stroke-linejoin:round;stroke-miterlimit:4;stroke-opacity:1;stroke-dasharray:none" />
      <path
         sodipodi:nodetypes="ccccccccccccc"
         inkscape:connector-curvature="0"
         id="path5074"
         d="m 330.35757,524.28897 c -5.58629,6.86365 -10.62885,14.01729 -20.38977,18.65447 3.98314,-0.2828 8.33722,-0.19467 10.95408,-1.84376 -5.8934,10.35009 -5.91604,21.04551 -7.15811,31.66921 2.85331,-3.83572 5.25519,-8.27335 8.89341,-11.06253 0.15285,5.51623 2.44584,9.80952 4.55516,14.20776 2.50593,-2.98064 3.05891,-6.28677 3.90442,-9.54414 -1.13454,1.84658 -2.30389,5.04374 -3.90442,6.94119 -2.3127,-5.06129 -1.56798,-11.85787 -1.40993,-16.91916 -3.07498,2.62145 -6.18396,5.54887 -9.54415,10.73716 -0.30198,-11.67287 4.1594,-19.53504 8.02576,-27.87324 l -5.53127,1.19302 c 6.40009,-3.7755 8.04952,-10.57416 11.60482,-16.15998 z"
         style="fill:#000000;stroke:none" />
    </g>
  </g>
</svg>
